<mxfile host="app.diagrams.net" modified="2023-06-09T09:18:14.899Z" agent="Mozilla/5.0 (Windows NT 10.0; Win64; x64) AppleWebKit/537.36 (KHTML, like Gecko) Chrome/114.0.0.0 Safari/537.36 Edg/114.0.1823.41" etag="eHd1kkOl98cVxbZUiWGJ" version="21.3.3" type="device" pages="3">
  <diagram name="Software Architecture" id="y5Jj0muLnSd2WHnL5ocM">
    <mxGraphModel dx="794" dy="1496" grid="1" gridSize="10" guides="1" tooltips="1" connect="1" arrows="1" fold="1" page="1" pageScale="1" pageWidth="850" pageHeight="1100" math="0" shadow="0">
      <root>
        <mxCell id="0" />
        <mxCell id="1" parent="0" />
        <mxCell id="hWGmwWejLz2qEXKXft3--18" style="orthogonalLoop=1;jettySize=auto;html=1;curved=1;strokeWidth=2;sketch=1;curveFitting=1;jiggle=2;strokeColor=#0066CC;startArrow=classic;startFill=1;" parent="1" source="r9noXsGCwt5rJGWpN1p4-1" target="hWGmwWejLz2qEXKXft3--15" edge="1">
          <mxGeometry relative="1" as="geometry">
            <Array as="points">
              <mxPoint x="650" y="80" />
            </Array>
          </mxGeometry>
        </mxCell>
        <mxCell id="r9noXsGCwt5rJGWpN1p4-1" value="listing-service" style="rounded=1;whiteSpace=wrap;html=1;strokeColor=#6c8ebf;strokeWidth=2;fillColor=#dae8fc;fontFamily=PT Sans;fontSource=https%3A%2F%2Ffonts.googleapis.com%2Fcss%3Ffamily%3DPT%2BSans;fontStyle=1;fontSize=14;align=left;spacingLeft=46;" parent="1" vertex="1">
          <mxGeometry x="400" y="40" width="180" height="50" as="geometry" />
        </mxCell>
        <mxCell id="hWGmwWejLz2qEXKXft3--19" style="orthogonalLoop=1;jettySize=auto;html=1;curved=1;strokeWidth=2;sketch=1;curveFitting=1;jiggle=2;strokeColor=#0066CC;startArrow=classic;startFill=1;" parent="1" source="r9noXsGCwt5rJGWpN1p4-2" target="hWGmwWejLz2qEXKXft3--15" edge="1">
          <mxGeometry relative="1" as="geometry" />
        </mxCell>
        <mxCell id="r9noXsGCwt5rJGWpN1p4-2" value="reservation-service" style="rounded=1;whiteSpace=wrap;html=1;strokeColor=#6c8ebf;strokeWidth=2;fillColor=#dae8fc;fontFamily=PT Sans;fontSource=https%3A%2F%2Ffonts.googleapis.com%2Fcss%3Ffamily%3DPT%2BSans;fontStyle=1;fontSize=14;spacingLeft=46;align=left;" parent="1" vertex="1">
          <mxGeometry x="400" y="130" width="180" height="50" as="geometry" />
        </mxCell>
        <mxCell id="r9noXsGCwt5rJGWpN1p4-12" style="orthogonalLoop=1;jettySize=auto;html=1;curved=1;strokeColor=#E535AB;strokeWidth=2;sketch=1;curveFitting=1;jiggle=2;" parent="1" source="r9noXsGCwt5rJGWpN1p4-3" target="hWGmwWejLz2qEXKXft3--27" edge="1">
          <mxGeometry relative="1" as="geometry">
            <mxPoint x="270" y="110" as="targetPoint" />
            <Array as="points">
              <mxPoint x="220" y="90" />
            </Array>
          </mxGeometry>
        </mxCell>
        <mxCell id="r9noXsGCwt5rJGWpN1p4-3" value="homefront" style="rounded=1;whiteSpace=wrap;html=1;strokeColor=#82b366;strokeWidth=2;fillColor=#d5e8d4;fontFamily=PT Sans;fontSource=https%3A%2F%2Ffonts.googleapis.com%2Fcss%3Ffamily%3DPT%2BSans;fontStyle=1;fontSize=14;" parent="1" vertex="1">
          <mxGeometry x="10" y="50" width="160" height="60" as="geometry" />
        </mxCell>
        <mxCell id="r9noXsGCwt5rJGWpN1p4-13" style="orthogonalLoop=1;jettySize=auto;html=1;curved=1;strokeColor=#E535AB;strokeWidth=2;sketch=1;curveFitting=1;jiggle=2;" parent="1" source="r9noXsGCwt5rJGWpN1p4-4" target="hWGmwWejLz2qEXKXft3--27" edge="1">
          <mxGeometry relative="1" as="geometry">
            <Array as="points">
              <mxPoint x="210" y="170" />
            </Array>
          </mxGeometry>
        </mxCell>
        <mxCell id="r9noXsGCwt5rJGWpN1p4-4" value="merchant app" style="rounded=1;whiteSpace=wrap;html=1;strokeColor=#82b366;strokeWidth=2;fillColor=#d5e8d4;fontFamily=PT Sans;fontSource=https%3A%2F%2Ffonts.googleapis.com%2Fcss%3Ffamily%3DPT%2BSans;fontStyle=1;fontSize=14;" parent="1" vertex="1">
          <mxGeometry x="10" y="140" width="160" height="60" as="geometry" />
        </mxCell>
        <mxCell id="r9noXsGCwt5rJGWpN1p4-14" style="orthogonalLoop=1;jettySize=auto;html=1;curved=1;strokeColor=#E535AB;strokeWidth=2;sketch=1;curveFitting=1;jiggle=2;" parent="1" source="r9noXsGCwt5rJGWpN1p4-5" target="hWGmwWejLz2qEXKXft3--27" edge="1">
          <mxGeometry relative="1" as="geometry">
            <Array as="points">
              <mxPoint x="230" y="230" />
            </Array>
          </mxGeometry>
        </mxCell>
        <mxCell id="r9noXsGCwt5rJGWpN1p4-5" value="admin app" style="rounded=1;whiteSpace=wrap;html=1;strokeColor=#82b366;strokeWidth=2;fillColor=#d5e8d4;fontFamily=PT Sans;fontSource=https%3A%2F%2Ffonts.googleapis.com%2Fcss%3Ffamily%3DPT%2BSans;fontStyle=1;fontSize=14;" parent="1" vertex="1">
          <mxGeometry x="10" y="240" width="160" height="50" as="geometry" />
        </mxCell>
        <mxCell id="hWGmwWejLz2qEXKXft3--20" style="orthogonalLoop=1;jettySize=auto;html=1;curved=1;strokeWidth=2;sketch=1;curveFitting=1;jiggle=2;strokeColor=#0066CC;startArrow=classic;startFill=1;" parent="1" source="r9noXsGCwt5rJGWpN1p4-6" target="hWGmwWejLz2qEXKXft3--15" edge="1">
          <mxGeometry relative="1" as="geometry">
            <Array as="points">
              <mxPoint x="640" y="290" />
            </Array>
          </mxGeometry>
        </mxCell>
        <mxCell id="r9noXsGCwt5rJGWpN1p4-6" value="payment-service" style="rounded=1;whiteSpace=wrap;html=1;strokeColor=#6c8ebf;strokeWidth=2;fillColor=#dae8fc;fontFamily=PT Sans;fontSource=https%3A%2F%2Ffonts.googleapis.com%2Fcss%3Ffamily%3DPT%2BSans;fontStyle=1;fontSize=14;spacingLeft=46;align=left;" parent="1" vertex="1">
          <mxGeometry x="400" y="280" width="180" height="50" as="geometry" />
        </mxCell>
        <mxCell id="hWGmwWejLz2qEXKXft3--21" style="orthogonalLoop=1;jettySize=auto;html=1;curved=1;strokeWidth=2;sketch=1;curveFitting=1;jiggle=2;strokeColor=#0066CC;startArrow=classic;startFill=1;" parent="1" source="r9noXsGCwt5rJGWpN1p4-15" target="hWGmwWejLz2qEXKXft3--15" edge="1">
          <mxGeometry relative="1" as="geometry">
            <Array as="points">
              <mxPoint x="500" y="260" />
            </Array>
          </mxGeometry>
        </mxCell>
        <mxCell id="hWGmwWejLz2qEXKXft3--53" style="orthogonalLoop=1;jettySize=auto;html=1;strokeColor=#FD4B2D;curved=1;strokeWidth=2;startArrow=classic;startFill=1;" parent="1" source="r9noXsGCwt5rJGWpN1p4-15" target="hWGmwWejLz2qEXKXft3--51" edge="1">
          <mxGeometry relative="1" as="geometry">
            <Array as="points">
              <mxPoint x="350" y="-20" />
            </Array>
          </mxGeometry>
        </mxCell>
        <mxCell id="r9noXsGCwt5rJGWpN1p4-15" value="BFF" style="rounded=1;whiteSpace=wrap;html=1;strokeColor=#9673a6;strokeWidth=2;fillColor=#e1d5e7;fontFamily=PT Sans;fontSource=https%3A%2F%2Ffonts.googleapis.com%2Fcss%3Ffamily%3DPT%2BSans;fontStyle=1;fontSize=14;horizontal=0;" parent="1" vertex="1">
          <mxGeometry x="290" y="40" width="50" height="270" as="geometry" />
        </mxCell>
        <mxCell id="hWGmwWejLz2qEXKXft3--15" value="" style="rounded=1;whiteSpace=wrap;html=1;fillColor=#ffe6cc;strokeColor=#d79b00;strokeWidth=2;" parent="1" vertex="1">
          <mxGeometry x="680" y="140" width="250" height="109" as="geometry" />
        </mxCell>
        <mxCell id="hWGmwWejLz2qEXKXft3--16" value="Producer" style="rounded=0;whiteSpace=wrap;html=1;strokeWidth=2;fillColor=#f5f5f5;strokeColor=#666666;fontColor=#333333;fontFamily=PT Sans;fontStyle=1;fontSource=https%3A%2F%2Ffonts.googleapis.com%2Fcss%3Ffamily%3DPT%2BSans;" parent="1" vertex="1">
          <mxGeometry x="700" y="150" width="120" height="40" as="geometry" />
        </mxCell>
        <mxCell id="hWGmwWejLz2qEXKXft3--17" value="Consumer" style="rounded=0;whiteSpace=wrap;html=1;strokeWidth=2;fillColor=#f5f5f5;strokeColor=#666666;fontColor=#333333;fontFamily=PT Sans;fontStyle=1;fontSource=https%3A%2F%2Ffonts.googleapis.com%2Fcss%3Ffamily%3DPT%2BSans;" parent="1" vertex="1">
          <mxGeometry x="700" y="200.00000000000003" width="120" height="40" as="geometry" />
        </mxCell>
        <mxCell id="hWGmwWejLz2qEXKXft3--3" value="" style="sketch=0;points=[[0,0,0],[0.25,0,0],[0.5,0,0],[0.75,0,0],[1,0,0],[0,1,0],[0.25,1,0],[0.5,1,0],[0.75,1,0],[1,1,0],[0,0.25,0],[0,0.5,0],[0,0.75,0],[1,0.25,0],[1,0.5,0],[1,0.75,0]];outlineConnect=0;fontColor=#232F3E;gradientColor=default;gradientDirection=north;fillColor=none;strokeColor=#FFB570;dashed=0;verticalLabelPosition=bottom;verticalAlign=top;align=center;html=1;fontSize=12;fontStyle=0;aspect=fixed;shape=mxgraph.aws4.resourceIcon;resIcon=mxgraph.aws4.managed_streaming_for_kafka;" parent="1" vertex="1">
          <mxGeometry x="840" y="155.5" width="78" height="78" as="geometry" />
        </mxCell>
        <mxCell id="hWGmwWejLz2qEXKXft3--22" value="" style="endArrow=classic;html=1;rounded=0;strokeWidth=2;sketch=1;curveFitting=1;jiggle=2;strokeColor=#E535AB;" parent="1" edge="1">
          <mxGeometry width="50" height="50" relative="1" as="geometry">
            <mxPoint x="10" y="394.5" as="sourcePoint" />
            <mxPoint x="100" y="394.5" as="targetPoint" />
          </mxGeometry>
        </mxCell>
        <mxCell id="hWGmwWejLz2qEXKXft3--23" value="GraphQL Request" style="text;html=1;strokeColor=none;fillColor=none;align=left;verticalAlign=middle;whiteSpace=wrap;rounded=0;fontFamily=PT Sans;fontSource=https%3A%2F%2Ffonts.googleapis.com%2Fcss%3Ffamily%3DPT%2BSans;fontStyle=1;fontSize=14;" parent="1" vertex="1">
          <mxGeometry x="110" y="379.1" width="140" height="30" as="geometry" />
        </mxCell>
        <mxCell id="hWGmwWejLz2qEXKXft3--24" value="" style="endArrow=classic;html=1;rounded=0;strokeWidth=2;sketch=1;curveFitting=1;jiggle=2;strokeColor=#0066CC;startArrow=classic;startFill=1;" parent="1" edge="1">
          <mxGeometry width="50" height="50" relative="1" as="geometry">
            <mxPoint x="10" y="435.4" as="sourcePoint" />
            <mxPoint x="100" y="435.4" as="targetPoint" />
          </mxGeometry>
        </mxCell>
        <mxCell id="hWGmwWejLz2qEXKXft3--25" value="Request - Response Connection" style="text;html=1;strokeColor=none;fillColor=none;align=left;verticalAlign=middle;whiteSpace=wrap;rounded=0;fontFamily=PT Sans;fontSource=https%3A%2F%2Ffonts.googleapis.com%2Fcss%3Ffamily%3DPT%2BSans;fontStyle=1;fontSize=14;" parent="1" vertex="1">
          <mxGeometry x="110" y="420" width="200" height="30" as="geometry" />
        </mxCell>
        <mxCell id="hWGmwWejLz2qEXKXft3--27" value="" style="shape=image;verticalLabelPosition=bottom;labelBackgroundColor=default;verticalAlign=top;aspect=fixed;imageAspect=0;image=data:image/png,iVBORw0KGgoAAAANSUhEUgAAAOMAAADeCAMAAAD4tEcNAAAAh1BMVEX////2AJz2AJr2AJj1AJX7ntL5eMD4XLL1AJP2AJ3+5PP/9/z+7Pf90ur7otP/9Pv9zuj+3vD/+/73N6n6lc38w+L8vN/5esH7r9n5f8P92e37qtf4Y7j6h8f+7vj+5/T8ttz3RK34UrH3J6T5b738xuT6mM73LKb4S6/4WLT6jcr4aLn7rNfa3wZYAAALyklEQVR4nO1d6VoiMRBkknCKgAKOICCXF/j+z7cgLAmTozsnoFO/9ls1k5rJ0ak+UqmUKFGiRIkSJUqUKPF7MX4Z5Nv1tPrWCt50e9jZrCf54GUcvGkL9CaUUUp2oIw1NyFptt9X7NA23T1j0gvYtA3mK0YyAZRtXwM1/bpmVGyasP4wUNM2ePhgWRGkMQ3S9qBBpKbZIvxsANBhUjd+vuXK/1N2FW9vz5I+B+i3BXJlN356cu/Z9EOmfHs7sDCjBImajuK+J37LYIsamk5IcmOguMPMo+mZsWXWCcYBwNBMkfQ92u7rBuqRpO9MQOLR2It9RwbObQ/Mry/LVgGJGLAxzJgjybZj0zOwaer+/izQBfuRkZpj2zncNr0LykaNAdyPjLl1pAuN1D3HamA+KjThfmT026npDuL1pZiR94h3nZGlU9sL86J6AHsIzEjGO+ZdZ1ktr9kir6Fapi/ROdYx73r3JV2Aa3kbneMK1ZGY8DExcMAN1ZhoRufYuDTFjEXniFlWb53j5ccqjc4RYwLERXwj4Ovie0c9OkeMubpD3QWolhOcPHooW27h1DZq701xTI72rp+buMEanJGMKeZsZX9IvlcrjvLrS6FbvcJ9IRPbRmdbtV4b5PU5oAZrHZaS9uMAyzCjeRxSBXSh/tCNXYPzJt6wICmkjh2eAO3RbpMe9y3MQ5bMtWMerdTG5dFdo4fpnuIoGicJJmPHav96p4WW6MrQtP1a5oE7/YdkFu7Qp+JEJLRaedMP3SS643+MdBxpE7+kjj8LbAhbd3f//6BdgmjCodrSvGrC8kdsG91acSKyxdHj9aido7abkgeWyi6QxhfeLdchhY9Fm3P+07e+mqWjpukAwW9F2U/Iwz4woZnjhc+3VXGYFvfUt23GXwL/V7K9gx8PmrNeZ11fLLfTbwtlt7WUJuJEYaFxw7jLD+aJ/FbV07PZk8Of342kidhXbjf8OYLVkcTdIfitnE6JL9JEzDSxDAJHwUtAu169x2F9epyD50ExEbVnJZHjw+nPyNqr9yiM+bCxftrrV3HTYV96w0/kKJiPnjEVGHCHva3V8TiVJuKHySg648gtK69wAxTmpy/BLGf/S1aciMTsgTrjWOnwB89dO4/Do+sq3itKGYSNgHFwzlHcsdDGlBN4vAN7s/iz9kQapktwwSpw5La67RncDm2+vFlYVY8bieEKYa8UOAoWZFRNZ8Ifg7eOJSmDEtRULnLkJ4GY50iuH+MVwPuilEFYDbeNFzkKxp3NIdUSgo6NnPaypsg+sZaDxFEI8Ipmtr7w5RsZSjqQpIwm3sSVOFaeeQciBT7c8eGG24YVUsa7xfNkjmLEYBzZgwscDYwsNV4UJ2JjbRX1qeB4f/LUx5E9Wqf2MdEjM0mvOEkZWCg4VranRhsxZA9he4I/R7XoMKXZ3PaBKo4zpw0aCy5wwI63oTwRHUwTFUfBxRtB9uCGKhQf05I1RZWUAULJ0aIf1uBhcoDA0c2LyRkaKQOEmmM82YP7qgCBQ9YUM7c4Tx1HQfYgYWUPpMAhSxls6nwQ0nCMJXsIAochjFrSFI1SBggNx1iyxwIhcCg0xZXNGVOCjqMge7iFjyghCBzaJBJZUySeCSc6jnFkD95xnb2vOEHlvhallqMoe3g+4wRQ4FBIGZ/+ppaeY3jZAxQ4NvIJKoQNoucYXvbgEeRMtUpKUgYJtDkbOPIYoTARgmaBQ3WCCrQ1GziGlj0+eP+ln822kuFme4LSw8SRL4Pkw/9JJoFDjsqwkDJAGDmGlD3uuHVYFDgUUkbQ0FIjR0H28A690gocD4FOUHqYOYaTPR40uq0iKsPxBKWHmaMge3hmYH1yQ1X8SFU5KiN8YjvAkeeD+skeaoFjCEZlBAHAMZTsoRIWVFKGTya5FhDHSpBoD4XAcZfHn4hHgBwF2cNGm65UHnvVfPK5mOTvvVe+PH8ef6qQMqJVmAA5CqsFee2955PF52TU6UHCQ29LjpFT+3IxJyaNw8qlkDI28Xy6MMcHnuDGeLfJ1mTePX1oKo38CBwtOSqjHqqYjAowR00eOmF9HcuZJMec/qirjMrwkzJAIDjqQtsJ2yqNn6E26Jl2dvahPBFj5wUjOOoz0QlVfICO7iPu9w0pwYSwUdzgigqOoyGNT9Z6Oob8VCJFk7JlzIl4BIajKWmoURCvgXSGAsPIE/EIBMcXY7fPj8+I/KITvDVFLGCOYyA5+sxZ8KlbbuQ/w0Zl+APm+AF0WzwrAUV/BOCjMvwBcjSP1J/u8kn1Af3uEWE0RSxAjnCHuXaBSk0NpyliAXGcI7p9ShraomYjC6UpYgFxxCwi/6sVgfWpfkCTl1yEdADU6Duee3FDNWKImgYAR9yWfnRRoqoP2R5DAwDgiMmL3nX7cLytoaZjinj8cwAccYV8jv6LCY7jp/JJEQFwxG14x0+jzhCTkCgLiAPgiCsccvRr/W6OXz+/jNse46dVFBFmrB7iF5FrTvxSWQUAHJHLyMEZ8oJbhJMUWhQRcu9AVcWzy+cIgpA2wK3acqjv+N+HcaM2OaZy4slyMWTkn/3+LZ+t0LX/ruyMDH9HYcPDq3JXpXUYJOH/3RUWSqSpk12ZZgUUiD4PUMKtUQdckfaoqzdx6urZ58Arc9kNaciFbv5GX4DkdPp9Ph2Fg3tYDAw74SZ9c0Rpl82+dB5InY81rnnn5WOd6ALMdCVdjr5yOez/On3llC1Mb7+3bv6/IYcK171cf8wD5d1ejUA7Zfw83dbr22mn176h2JXZ+Hu6XSxH07llIPtvjUE6wx+IJdPFBAZJbwSRKCZQjO0Uv9W7lKZ6u7Gd2toKcgnDS8boeubLaGOt5aSH0NMyVay1MWa+WBDnVmPmjbkPXmUcQCTLfTDnsLQncg5LMDEkXQ4LkIskJwXeYi4SlFP2LNepurmcskob2ojkU9fN5QbCOZ6v0smTLW8rxxNjGPbkXF2o7BiIpLm6rjnXnot62pxr19x5YxlAEGlz5/9EDQRsLYth83ZrWeBrksgZdc5iSOqaJBa1ZWq3WlvGpjZPqAzX5DWCrGo9hclUTl/rya5ml5xxns1tH5i+Zpdt7TW5COIN1F7zr6HHrr6Gnn0tREUlj2uvhehQ01JRkeW6a1o61SZVVNa56tqkf6LGrFutYFcx5DK1gi9b8/kruMChhmPt7teJdOqCxZAL1e4OW4MdWLcuVYP9L9TS97oTwVIMudidCH/ibou/cEeJ710zcmQIub67ZrzvDMJGhlzwzqCzVbz9tNnWF8tJ7buHf7/Iu5/4XjxLfveT6g6vfUmXCd4qGK6gyJD79WXv8NLdxcb6eJZVWpyW4l1svcWl72Iz3KlXR49YRWTIVd2pp78bkRC8lqoSQ/avqHUVdyMK+4f8quf4ZtR3XOrbTrNvHGHKy2vYLAvSpcHmu0q/ojGSkJvD8W2MrS768uefptPcjlyBE53sRHq7u4MDxv+YYJiMB5h8lCpY3QGdZkpqF1X+ti2NdVkMCfb+3ICok2G/NljcyZ4gewaVB+wgKklpMhpEFnMOwOTlOwVAPjdRnzK821ECqkqLox6ByjW1uivcDQPcGlh3AarlBCdI03XsAogLcC3Hv5gdVyYjJkIErJphkfEaC9E52iS8xgErOQaAxSkhEkh0jth6CfEQX5rDla257b2jiltYa3nNFnkN1XICG2CMsuXcgmdRJVJT+HRQNrlbKQhURaYENrkQ5Wl4127ZZV3EGElScwrREWf/WQ1+fyyJ2LEBO0Jd4y7acNMpjsgVeEbaRgoIGECDJMVs3AMoZOblsAfKOCc4IB9hfttNnxnTNlNMWCB1ZCBJ/RIgHwxTkqX06ehJEuKb4znW2nQMHYgYBt/qSjSs77+0z9TOARIvZlWHVtF7uB+mHiuqiKpCUGb9hP7VE4aFW1sozUPtz7M1PRsnhH3MAzVti17teI8NpYx9VEOWB2hX++xQLmbXNsmTbRkqtJ6qo8l60HkLb2Ld9Tqb9XZUfU5w0ChRokSJEiVKlChR4mL4B9VFujxKQewWAAAAAElFTkSuQmCC;clipPath=inset(4.5% 0% 4.05% 0% round 28%);" parent="1" vertex="1">
          <mxGeometry x="260" y="158.22" width="42.72" height="38.20334801762114" as="geometry" />
        </mxCell>
        <mxCell id="hWGmwWejLz2qEXKXft3--35" value="" style="group" parent="1" vertex="1" connectable="0">
          <mxGeometry x="560" y="70" width="22.690000000000055" height="30" as="geometry" />
        </mxCell>
        <mxCell id="hWGmwWejLz2qEXKXft3--34" value="" style="rounded=0;whiteSpace=wrap;html=1;strokeColor=none;" parent="hWGmwWejLz2qEXKXft3--35" vertex="1">
          <mxGeometry width="20" height="30" as="geometry" />
        </mxCell>
        <mxCell id="hWGmwWejLz2qEXKXft3--33" value="" style="sketch=0;outlineConnect=0;fontColor=#232F3E;gradientColor=none;fillColor=#2E27AD;strokeColor=none;dashed=0;verticalLabelPosition=bottom;verticalAlign=top;align=center;html=1;fontSize=12;fontStyle=0;aspect=fixed;pointerEvents=1;shape=mxgraph.aws4.rds_trusted_language_extensions_for_postgresql;" parent="hWGmwWejLz2qEXKXft3--35" vertex="1">
          <mxGeometry width="22.69" height="30" as="geometry" />
        </mxCell>
        <mxCell id="hWGmwWejLz2qEXKXft3--36" value="" style="group" parent="1" vertex="1" connectable="0">
          <mxGeometry x="560" y="160" width="22.690000000000055" height="30" as="geometry" />
        </mxCell>
        <mxCell id="hWGmwWejLz2qEXKXft3--37" value="" style="rounded=0;whiteSpace=wrap;html=1;strokeColor=none;" parent="hWGmwWejLz2qEXKXft3--36" vertex="1">
          <mxGeometry width="20" height="30" as="geometry" />
        </mxCell>
        <mxCell id="hWGmwWejLz2qEXKXft3--38" value="" style="sketch=0;outlineConnect=0;fontColor=#232F3E;gradientColor=none;fillColor=#2E27AD;strokeColor=none;dashed=0;verticalLabelPosition=bottom;verticalAlign=top;align=center;html=1;fontSize=12;fontStyle=0;aspect=fixed;pointerEvents=1;shape=mxgraph.aws4.rds_trusted_language_extensions_for_postgresql;" parent="hWGmwWejLz2qEXKXft3--36" vertex="1">
          <mxGeometry width="22.69" height="30" as="geometry" />
        </mxCell>
        <mxCell id="hWGmwWejLz2qEXKXft3--39" value="" style="group" parent="1" vertex="1" connectable="0">
          <mxGeometry x="560" y="310.9" width="22.690000000000055" height="30" as="geometry" />
        </mxCell>
        <mxCell id="hWGmwWejLz2qEXKXft3--40" value="" style="rounded=0;whiteSpace=wrap;html=1;strokeColor=none;" parent="hWGmwWejLz2qEXKXft3--39" vertex="1">
          <mxGeometry width="20" height="30" as="geometry" />
        </mxCell>
        <mxCell id="hWGmwWejLz2qEXKXft3--41" value="" style="sketch=0;outlineConnect=0;fontColor=#232F3E;gradientColor=none;fillColor=#2E27AD;strokeColor=none;dashed=0;verticalLabelPosition=bottom;verticalAlign=top;align=center;html=1;fontSize=12;fontStyle=0;aspect=fixed;pointerEvents=1;shape=mxgraph.aws4.rds_trusted_language_extensions_for_postgresql;" parent="hWGmwWejLz2qEXKXft3--39" vertex="1">
          <mxGeometry width="22.69" height="30" as="geometry" />
        </mxCell>
        <mxCell id="hWGmwWejLz2qEXKXft3--42" value="" style="shape=image;verticalLabelPosition=bottom;labelBackgroundColor=default;verticalAlign=top;aspect=fixed;imageAspect=0;image=https://gorzelinski.com/static/1db41e3ecd311724a15306b270d99dd9/6e87d/next-js-logo.png;clipPath=inset(35.35% 22.33% 34.08% 21.33% round 4%);" parent="1" vertex="1">
          <mxGeometry x="110" y="100" width="81.33" height="23.1" as="geometry" />
        </mxCell>
        <mxCell id="hWGmwWejLz2qEXKXft3--43" value="" style="shape=image;verticalLabelPosition=bottom;labelBackgroundColor=default;verticalAlign=top;aspect=fixed;imageAspect=0;image=https://docs.flutter.dev/assets/images/flutter-logo-sharing.png;clipPath=inset(26.35% 21% 29.05% 15.67% round 5%);" parent="1" vertex="1">
          <mxGeometry x="107.49" y="180" width="86.36" height="30" as="geometry" />
        </mxCell>
        <mxCell id="hWGmwWejLz2qEXKXft3--44" value="" style="shape=image;verticalLabelPosition=bottom;labelBackgroundColor=default;verticalAlign=top;aspect=fixed;imageAspect=0;image=https://gorzelinski.com/static/1db41e3ecd311724a15306b270d99dd9/6e87d/next-js-logo.png;clipPath=inset(35.35% 22.33% 34.08% 21.33% round 4%);" parent="1" vertex="1">
          <mxGeometry x="107.49" y="280" width="81.33" height="23.1" as="geometry" />
        </mxCell>
        <mxCell id="hWGmwWejLz2qEXKXft3--45" value="" style="shape=image;verticalLabelPosition=bottom;labelBackgroundColor=default;verticalAlign=top;aspect=fixed;imageAspect=0;image=https://upload.wikimedia.org/wikipedia/commons/thumb/a/a8/NestJS.svg/1200px-NestJS.svg.png;" parent="1" vertex="1">
          <mxGeometry x="299.47" y="276.55" width="31.06" height="30" as="geometry" />
        </mxCell>
        <mxCell id="hWGmwWejLz2qEXKXft3--46" value="" style="shape=image;verticalLabelPosition=bottom;labelBackgroundColor=default;verticalAlign=top;aspect=fixed;imageAspect=0;image=https://upload.wikimedia.org/wikipedia/commons/thumb/a/a8/NestJS.svg/1200px-NestJS.svg.png;" parent="1" vertex="1">
          <mxGeometry x="409" y="290" width="31.06" height="30" as="geometry" />
        </mxCell>
        <mxCell id="hWGmwWejLz2qEXKXft3--48" value="" style="shape=image;verticalLabelPosition=bottom;labelBackgroundColor=default;verticalAlign=top;aspect=fixed;imageAspect=0;image=https://upload.wikimedia.org/wikipedia/commons/thumb/a/a8/NestJS.svg/1200px-NestJS.svg.png;" parent="1" vertex="1">
          <mxGeometry x="409" y="50" width="31.06" height="30" as="geometry" />
        </mxCell>
        <mxCell id="hWGmwWejLz2qEXKXft3--49" value="" style="shape=image;verticalLabelPosition=bottom;labelBackgroundColor=default;verticalAlign=top;aspect=fixed;imageAspect=0;image=https://upload.wikimedia.org/wikipedia/commons/thumb/a/a8/NestJS.svg/1200px-NestJS.svg.png;" parent="1" vertex="1">
          <mxGeometry x="409" y="140.00000000000003" width="31.06" height="30" as="geometry" />
        </mxCell>
        <mxCell id="hWGmwWejLz2qEXKXft3--51" value="identity" style="rounded=1;whiteSpace=wrap;html=1;strokeColor=#CF3D25;strokeWidth=2;fillColor=#FD4B2D;fontFamily=PT Sans;fontSource=https%3A%2F%2Ffonts.googleapis.com%2Fcss%3Ffamily%3DPT%2BSans;fontStyle=1;fontSize=14;align=left;spacingLeft=93;" parent="1" vertex="1">
          <mxGeometry x="400" y="-60" width="180" height="60" as="geometry" />
        </mxCell>
        <mxCell id="hWGmwWejLz2qEXKXft3--52" value="" style="shape=image;verticalLabelPosition=bottom;labelBackgroundColor=default;verticalAlign=top;aspect=fixed;imageAspect=0;image=https://d33wubrfki0l68.cloudfront.net/3986a9ebfee622cb3fed7c0b7d3661e431dcff5c/8fd41/img/icon_top_brand.svg;" parent="1" vertex="1">
          <mxGeometry x="409" y="-50" width="76" height="40" as="geometry" />
        </mxCell>
        <mxCell id="hWGmwWejLz2qEXKXft3--54" value="" style="group" parent="1" vertex="1" connectable="0">
          <mxGeometry x="560" y="-20" width="22.690000000000055" height="30" as="geometry" />
        </mxCell>
        <mxCell id="hWGmwWejLz2qEXKXft3--55" value="" style="rounded=0;whiteSpace=wrap;html=1;strokeColor=none;" parent="hWGmwWejLz2qEXKXft3--54" vertex="1">
          <mxGeometry width="20" height="30" as="geometry" />
        </mxCell>
        <mxCell id="hWGmwWejLz2qEXKXft3--56" value="" style="sketch=0;outlineConnect=0;fontColor=#232F3E;gradientColor=none;fillColor=#2E27AD;strokeColor=none;dashed=0;verticalLabelPosition=bottom;verticalAlign=top;align=center;html=1;fontSize=12;fontStyle=0;aspect=fixed;pointerEvents=1;shape=mxgraph.aws4.rds_trusted_language_extensions_for_postgresql;" parent="hWGmwWejLz2qEXKXft3--54" vertex="1">
          <mxGeometry width="22.69" height="30" as="geometry" />
        </mxCell>
        <mxCell id="hWGmwWejLz2qEXKXft3--57" value="1" style="ellipse;whiteSpace=wrap;html=1;aspect=fixed;strokeWidth=2;fontSize=14;fontStyle=1" parent="1" vertex="1">
          <mxGeometry x="150" y="40" width="30" height="30" as="geometry" />
        </mxCell>
        <mxCell id="hWGmwWejLz2qEXKXft3--58" value="2" style="ellipse;whiteSpace=wrap;html=1;aspect=fixed;strokeWidth=2;fontSize=14;fontStyle=1" parent="1" vertex="1">
          <mxGeometry x="150" y="128.22" width="30" height="30" as="geometry" />
        </mxCell>
        <mxCell id="hWGmwWejLz2qEXKXft3--59" value="3" style="ellipse;whiteSpace=wrap;html=1;aspect=fixed;strokeWidth=2;fontSize=14;fontStyle=1" parent="1" vertex="1">
          <mxGeometry x="150" y="233.5" width="30" height="30" as="geometry" />
        </mxCell>
        <mxCell id="hWGmwWejLz2qEXKXft3--60" value="4" style="ellipse;whiteSpace=wrap;html=1;aspect=fixed;strokeWidth=2;fontSize=14;fontStyle=1" parent="1" vertex="1">
          <mxGeometry x="272.72" y="30" width="30" height="30" as="geometry" />
        </mxCell>
        <mxCell id="hWGmwWejLz2qEXKXft3--61" value="5" style="ellipse;whiteSpace=wrap;html=1;aspect=fixed;strokeWidth=2;fontSize=14;fontStyle=1" parent="1" vertex="1">
          <mxGeometry x="560" y="-70" width="30" height="30" as="geometry" />
        </mxCell>
        <mxCell id="hWGmwWejLz2qEXKXft3--62" value="6" style="ellipse;whiteSpace=wrap;html=1;aspect=fixed;strokeWidth=2;fontSize=14;fontStyle=1" parent="1" vertex="1">
          <mxGeometry x="560" y="30" width="30" height="30" as="geometry" />
        </mxCell>
        <mxCell id="hWGmwWejLz2qEXKXft3--63" value="7" style="ellipse;whiteSpace=wrap;html=1;aspect=fixed;strokeWidth=2;fontSize=14;fontStyle=1" parent="1" vertex="1">
          <mxGeometry x="560" y="120" width="30" height="30" as="geometry" />
        </mxCell>
        <mxCell id="hWGmwWejLz2qEXKXft3--64" value="8" style="ellipse;whiteSpace=wrap;html=1;aspect=fixed;strokeWidth=2;fontSize=14;fontStyle=1" parent="1" vertex="1">
          <mxGeometry x="560" y="264.5" width="30" height="30" as="geometry" />
        </mxCell>
        <mxCell id="hWGmwWejLz2qEXKXft3--65" value="9" style="ellipse;whiteSpace=wrap;html=1;aspect=fixed;strokeWidth=2;fontSize=14;fontStyle=1" parent="1" vertex="1">
          <mxGeometry x="910" y="130" width="30" height="30" as="geometry" />
        </mxCell>
      </root>
    </mxGraphModel>
  </diagram>
  <diagram id="gCF373wgeBaEonL4WB0Q" name="Infrastructure">
    <mxGraphModel dx="2284" dy="756" grid="1" gridSize="10" guides="1" tooltips="1" connect="1" arrows="1" fold="1" page="1" pageScale="1" pageWidth="850" pageHeight="1100" math="0" shadow="0">
      <root>
        <mxCell id="0" />
        <mxCell id="1" parent="0" />
        <mxCell id="UY6l-0SQwOVGesC4bHzt-1" value="" style="rounded=1;whiteSpace=wrap;html=1;arcSize=3;fillColor=#f5f5f5;fontColor=#333333;strokeColor=#666666;strokeWidth=1;" vertex="1" parent="1">
          <mxGeometry x="-120" y="40" width="850" height="580" as="geometry" />
        </mxCell>
        <mxCell id="nhd4F8vvcdglLJRTMwFk-10" value="" style="rounded=1;whiteSpace=wrap;html=1;arcSize=13;fillColor=#E0E0E0;strokeColor=#191919;strokeWidth=2;" vertex="1" parent="1">
          <mxGeometry x="510" y="100" width="70" height="450" as="geometry" />
        </mxCell>
        <mxCell id="nhd4F8vvcdglLJRTMwFk-8" value="" style="rounded=1;whiteSpace=wrap;html=1;arcSize=13;fillColor=#E0E0E0;strokeColor=#191919;strokeWidth=2;" vertex="1" parent="1">
          <mxGeometry x="420" y="100" width="70" height="450" as="geometry" />
        </mxCell>
        <mxCell id="UY6l-0SQwOVGesC4bHzt-2" value="" style="rounded=1;whiteSpace=wrap;html=1;arcSize=3;fillColor=#E0E0E0;strokeColor=#191919;strokeWidth=2;" vertex="1" parent="1">
          <mxGeometry x="70" y="100" width="330" height="450" as="geometry" />
        </mxCell>
        <mxCell id="nhd4F8vvcdglLJRTMwFk-14" value="" style="rounded=1;whiteSpace=wrap;html=1;fillColor=none;strokeWidth=2;arcSize=3;strokeColor=#CC6600;dashed=1;dashPattern=8 8;" vertex="1" parent="1">
          <mxGeometry x="-10" y="159.5" width="670" height="350.5" as="geometry" />
        </mxCell>
        <mxCell id="nhd4F8vvcdglLJRTMwFk-12" value="" style="rounded=1;whiteSpace=wrap;html=1;fillColor=none;strokeWidth=2;arcSize=4;strokeColor=#CC6600;dashed=1;" vertex="1" parent="1">
          <mxGeometry x="58" y="190" width="542" height="290" as="geometry" />
        </mxCell>
        <mxCell id="UY6l-0SQwOVGesC4bHzt-5" value="Oracle Cloud Infrastructure - OCI (Region)" style="text;html=1;strokeColor=none;fillColor=none;align=left;verticalAlign=middle;whiteSpace=wrap;rounded=0;fontStyle=1;fontFamily=PT Sans;fontSource=https%3A%2F%2Ffonts.googleapis.com%2Fcss%3Ffamily%3DPT%2BSans;fontSize=14;" vertex="1" parent="1">
          <mxGeometry x="-110" y="50" width="260" height="30" as="geometry" />
        </mxCell>
        <mxCell id="nhd4F8vvcdglLJRTMwFk-2" value="Availability Domain 1 (AD1)" style="text;html=1;strokeColor=none;fillColor=none;align=left;verticalAlign=middle;whiteSpace=wrap;rounded=0;fontStyle=1;fontFamily=PT Sans;fontSource=https%3A%2F%2Ffonts.googleapis.com%2Fcss%3Ffamily%3DPT%2BSans;fontSize=14;" vertex="1" parent="1">
          <mxGeometry x="80" y="110" width="260" height="30" as="geometry" />
        </mxCell>
        <mxCell id="nhd4F8vvcdglLJRTMwFk-4" value="VM.Standard.E2.1.Micro" style="sketch=0;outlineConnect=0;fontColor=#232F3E;gradientColor=none;fillColor=#333333;strokeColor=none;dashed=0;verticalLabelPosition=bottom;verticalAlign=top;align=center;html=1;fontSize=14;fontStyle=0;aspect=fixed;pointerEvents=1;shape=mxgraph.aws4.instance2;fontFamily=PT Sans;fontSource=https%3A%2F%2Ffonts.googleapis.com%2Fcss%3Ffamily%3DPT%2BSans;" vertex="1" parent="1">
          <mxGeometry x="290" y="240" width="48" height="48" as="geometry" />
        </mxCell>
        <mxCell id="nhd4F8vvcdglLJRTMwFk-5" value="VM.Standard.E2.1.Micro" style="sketch=0;outlineConnect=0;fontColor=#232F3E;gradientColor=none;fillColor=#333333;strokeColor=none;dashed=0;verticalLabelPosition=bottom;verticalAlign=top;align=center;html=1;fontSize=14;fontStyle=0;aspect=fixed;pointerEvents=1;shape=mxgraph.aws4.instance2;fontFamily=PT Sans;fontSource=https%3A%2F%2Ffonts.googleapis.com%2Fcss%3Ffamily%3DPT%2BSans;" vertex="1" parent="1">
          <mxGeometry x="130" y="210" width="48" height="48" as="geometry" />
        </mxCell>
        <mxCell id="nhd4F8vvcdglLJRTMwFk-6" value="VM.Standard.A1.Flex" style="sketch=0;outlineConnect=0;fontColor=#232F3E;gradientColor=none;fillColor=#333333;strokeColor=none;dashed=0;verticalLabelPosition=bottom;verticalAlign=top;align=center;html=1;fontSize=14;fontStyle=0;aspect=fixed;pointerEvents=1;shape=mxgraph.aws4.instance2;fontFamily=PT Sans;fontSource=https%3A%2F%2Ffonts.googleapis.com%2Fcss%3Ffamily%3DPT%2BSans;" vertex="1" parent="1">
          <mxGeometry x="130" y="300" width="48" height="48" as="geometry" />
        </mxCell>
        <mxCell id="nhd4F8vvcdglLJRTMwFk-7" value="VM.Standard.A1.Flex" style="sketch=0;outlineConnect=0;fontColor=#232F3E;gradientColor=none;fillColor=#333333;strokeColor=none;dashed=0;verticalLabelPosition=bottom;verticalAlign=top;align=center;html=1;fontSize=14;fontStyle=0;aspect=fixed;pointerEvents=1;shape=mxgraph.aws4.instance2;fontFamily=PT Sans;fontSource=https%3A%2F%2Ffonts.googleapis.com%2Fcss%3Ffamily%3DPT%2BSans;" vertex="1" parent="1">
          <mxGeometry x="130" y="390" width="48" height="48" as="geometry" />
        </mxCell>
        <mxCell id="nhd4F8vvcdglLJRTMwFk-9" value="AD2" style="text;html=1;strokeColor=none;fillColor=none;align=left;verticalAlign=middle;whiteSpace=wrap;rounded=0;fontStyle=1;fontFamily=PT Sans;fontSource=https%3A%2F%2Ffonts.googleapis.com%2Fcss%3Ffamily%3DPT%2BSans;fontSize=14;" vertex="1" parent="1">
          <mxGeometry x="430" y="110" width="50" height="30" as="geometry" />
        </mxCell>
        <mxCell id="nhd4F8vvcdglLJRTMwFk-11" value="AD3" style="text;html=1;strokeColor=none;fillColor=none;align=left;verticalAlign=middle;whiteSpace=wrap;rounded=0;fontStyle=1;fontFamily=PT Sans;fontSource=https%3A%2F%2Ffonts.googleapis.com%2Fcss%3Ffamily%3DPT%2BSans;fontSize=14;" vertex="1" parent="1">
          <mxGeometry x="520" y="110" width="50" height="30" as="geometry" />
        </mxCell>
        <mxCell id="nhd4F8vvcdglLJRTMwFk-15" value="10.0.0.0/24&lt;br style=&quot;font-size: 14px;&quot;&gt;&lt;b style=&quot;font-size: 14px;&quot;&gt;Public subnet&lt;/b&gt;" style="text;html=1;strokeColor=none;fillColor=none;align=left;verticalAlign=middle;whiteSpace=wrap;rounded=0;horizontal=0;fontSize=14;fontFamily=PT Sans;fontSource=https%3A%2F%2Ffonts.googleapis.com%2Fcss%3Ffamily%3DPT%2BSans;fontColor=#CC6600;" vertex="1" parent="1">
          <mxGeometry x="600" y="385" width="40" height="95" as="geometry" />
        </mxCell>
        <mxCell id="nhd4F8vvcdglLJRTMwFk-16" value="10.0.0.0/16&lt;br style=&quot;font-size: 14px;&quot;&gt;&lt;b&gt;Virtual Cloud Network - VCN&lt;/b&gt;" style="text;html=1;strokeColor=none;fillColor=none;align=left;verticalAlign=middle;whiteSpace=wrap;rounded=0;horizontal=0;fontSize=14;fontFamily=PT Sans;fontSource=https%3A%2F%2Ffonts.googleapis.com%2Fcss%3Ffamily%3DPT%2BSans;fontColor=#CC6600;" vertex="1" parent="1">
          <mxGeometry x="660" y="317.25" width="40" height="190.5" as="geometry" />
        </mxCell>
        <mxCell id="nhd4F8vvcdglLJRTMwFk-17" value="Internet&#xa;gateway" style="sketch=0;outlineConnect=0;fontColor=#232F3E;gradientColor=none;strokeColor=#333333;fillColor=none;dashed=0;verticalLabelPosition=bottom;verticalAlign=top;align=center;html=1;fontSize=14;fontStyle=0;aspect=fixed;shape=mxgraph.aws4.resourceIcon;resIcon=mxgraph.aws4.internet_gateway;fontFamily=PT Sans;fontSource=https%3A%2F%2Ffonts.googleapis.com%2Fcss%3Ffamily%3DPT%2BSans;" vertex="1" parent="1">
          <mxGeometry x="-41" y="251" width="60" height="60" as="geometry" />
        </mxCell>
        <mxCell id="VzZ8rq9TE-rlp1U2jicL-7" style="orthogonalLoop=1;jettySize=auto;html=1;curved=1;strokeWidth=2;sourcePerimeterSpacing=10;" edge="1" parent="1" source="VzZ8rq9TE-rlp1U2jicL-2" target="nhd4F8vvcdglLJRTMwFk-17">
          <mxGeometry relative="1" as="geometry" />
        </mxCell>
        <mxCell id="VzZ8rq9TE-rlp1U2jicL-2" value="Users" style="sketch=0;outlineConnect=0;fontColor=#232F3E;gradientColor=none;fillColor=#232F3D;strokeColor=none;dashed=0;verticalLabelPosition=bottom;verticalAlign=top;align=center;html=1;fontSize=14;fontStyle=1;aspect=fixed;pointerEvents=1;shape=mxgraph.aws4.users;fontFamily=PT Sans;fontSource=https%3A%2F%2Ffonts.googleapis.com%2Fcss%3Ffamily%3DPT%2BSans;" vertex="1" parent="1">
          <mxGeometry x="-250" y="252" width="59" height="59" as="geometry" />
        </mxCell>
        <mxCell id="VzZ8rq9TE-rlp1U2jicL-4" value="" style="dashed=0;outlineConnect=0;html=1;align=center;labelPosition=center;verticalLabelPosition=bottom;verticalAlign=top;shape=mxgraph.weblogos.oracle;fillColor=#FF0000;strokeColor=none" vertex="1" parent="1">
          <mxGeometry x="-90" y="580" width="90" height="23" as="geometry" />
        </mxCell>
        <mxCell id="VzZ8rq9TE-rlp1U2jicL-6" value="" style="sketch=0;outlineConnect=0;fontColor=#232F3E;gradientColor=none;fillColor=#333333;strokeColor=none;dashed=0;verticalLabelPosition=bottom;verticalAlign=top;align=center;html=1;fontSize=12;fontStyle=0;aspect=fixed;pointerEvents=1;shape=mxgraph.aws4.virtual_router;" vertex="1" parent="1">
          <mxGeometry x="632" y="142" width="48" height="48" as="geometry" />
        </mxCell>
      </root>
    </mxGraphModel>
  </diagram>
  <diagram id="k83QRBNyTWtjFpNfJNsF" name="Availability Domain 1">
    <mxGraphModel dx="1434" dy="756" grid="1" gridSize="10" guides="1" tooltips="1" connect="1" arrows="1" fold="1" page="1" pageScale="1" pageWidth="850" pageHeight="1100" math="0" shadow="0">
      <root>
        <mxCell id="0" />
        <mxCell id="1" parent="0" />
        <mxCell id="mOfmLI81iiUK9S2rkU0J-1" value="" style="rounded=1;whiteSpace=wrap;html=1;arcSize=3;fillColor=#E0E0E0;strokeColor=#191919;strokeWidth=2;" vertex="1" parent="1">
          <mxGeometry x="70" y="100" width="1460" height="730" as="geometry" />
        </mxCell>
        <mxCell id="GBg876sgUXsfD0ILHel0-1" value="Availability Domain 1 (AD1)" style="text;html=1;strokeColor=none;fillColor=none;align=left;verticalAlign=middle;whiteSpace=wrap;rounded=0;fontStyle=1;fontFamily=PT Sans;fontSource=https%3A%2F%2Ffonts.googleapis.com%2Fcss%3Ffamily%3DPT%2BSans;fontSize=14;" vertex="1" parent="1">
          <mxGeometry x="80" y="110" width="260" height="30" as="geometry" />
        </mxCell>
        <mxCell id="GBg876sgUXsfD0ILHel0-3" value="" style="rounded=1;whiteSpace=wrap;html=1;arcSize=3;fillColor=#FFFFFF;strokeColor=#191919;strokeWidth=2;" vertex="1" parent="1">
          <mxGeometry x="100" y="170" width="690" height="280" as="geometry" />
        </mxCell>
        <mxCell id="Xzo0liXfD2kGcw6VcEvf-1" value="VM.Standard.E2.1.Micro - Worker Node" style="text;html=1;strokeColor=none;fillColor=none;align=left;verticalAlign=middle;whiteSpace=wrap;rounded=0;fontStyle=1;fontFamily=PT Sans;fontSource=https%3A%2F%2Ffonts.googleapis.com%2Fcss%3Ffamily%3DPT%2BSans;fontSize=14;" vertex="1" parent="1">
          <mxGeometry x="110" y="180" width="260" height="30" as="geometry" />
        </mxCell>
        <mxCell id="zMlfEPWfNRF0MTO0QMjV-36" value="" style="rounded=1;whiteSpace=wrap;html=1;arcSize=3;fillColor=#FFFFFF;strokeColor=#191919;strokeWidth=2;" vertex="1" parent="1">
          <mxGeometry x="830" y="170" width="670" height="490" as="geometry" />
        </mxCell>
        <mxCell id="zMlfEPWfNRF0MTO0QMjV-37" value="VM.Standard.A1.Flex - Worker Node" style="text;html=1;strokeColor=none;fillColor=none;align=left;verticalAlign=middle;whiteSpace=wrap;rounded=0;fontStyle=1;fontFamily=PT Sans;fontSource=https%3A%2F%2Ffonts.googleapis.com%2Fcss%3Ffamily%3DPT%2BSans;fontSize=14;" vertex="1" parent="1">
          <mxGeometry x="840" y="180" width="260" height="30" as="geometry" />
        </mxCell>
        <mxCell id="zMlfEPWfNRF0MTO0QMjV-38" value="" style="group" vertex="1" connectable="0" parent="1">
          <mxGeometry x="860" y="230" width="190" height="190" as="geometry" />
        </mxCell>
        <mxCell id="zMlfEPWfNRF0MTO0QMjV-39" value="" style="rounded=1;whiteSpace=wrap;html=1;arcSize=4;fillColor=#E0E0E0;strokeColor=#191919;strokeWidth=2;" vertex="1" parent="zMlfEPWfNRF0MTO0QMjV-38">
          <mxGeometry width="190" height="190" as="geometry" />
        </mxCell>
        <mxCell id="zMlfEPWfNRF0MTO0QMjV-40" value="Pod" style="text;html=1;strokeColor=none;fillColor=none;align=left;verticalAlign=middle;whiteSpace=wrap;rounded=0;fontStyle=1;fontFamily=PT Sans;fontSource=https%3A%2F%2Ffonts.googleapis.com%2Fcss%3Ffamily%3DPT%2BSans;fontSize=14;" vertex="1" parent="zMlfEPWfNRF0MTO0QMjV-38">
          <mxGeometry x="10" y="10" width="40" height="30" as="geometry" />
        </mxCell>
        <mxCell id="zMlfEPWfNRF0MTO0QMjV-41" value="" style="rounded=1;whiteSpace=wrap;html=1;arcSize=9;fillColor=#FFFFFF;strokeColor=#191919;strokeWidth=2;" vertex="1" parent="zMlfEPWfNRF0MTO0QMjV-38">
          <mxGeometry x="10" y="40" width="170" height="140" as="geometry" />
        </mxCell>
        <mxCell id="zMlfEPWfNRF0MTO0QMjV-42" value="App container" style="text;html=1;strokeColor=none;fillColor=none;align=left;verticalAlign=middle;whiteSpace=wrap;rounded=0;fontStyle=1;fontFamily=PT Sans;fontSource=https%3A%2F%2Ffonts.googleapis.com%2Fcss%3Ffamily%3DPT%2BSans;fontSize=14;" vertex="1" parent="zMlfEPWfNRF0MTO0QMjV-38">
          <mxGeometry x="20" y="40" width="100" height="30" as="geometry" />
        </mxCell>
        <mxCell id="zMlfEPWfNRF0MTO0QMjV-43" value="" style="editableCssRules=.*;html=1;shape=image;verticalLabelPosition=bottom;labelBackgroundColor=#ffffff;verticalAlign=top;aspect=fixed;imageAspect=0;image=data:image/svg+xml,PHN2ZyB4bWxucz0iaHR0cDovL3d3dy53My5vcmcvMjAwMC9zdmciIHhtbG5zOnY9Imh0dHBzOi8vdmVjdGEuaW8vbmFubyIgd2lkdGg9IjE0LjAwMDI5OTQ1MzczNTM1MiIgaGVpZ2h0PSIxNS45OTI5MjI3ODI4OTc5NSIgdmlld0JveD0iLTAuMDAwMTQ5NjA4NDAwNTMzOTA3MTIgLTAuMDAwNDYxNzIyMDgzODU1NDIwMzUgMTQuMDAwMjk5NDUzNzM1MzUyIDE1Ljk5MjkyMjc4Mjg5Nzk1Ij4mI3hhOwk8c3R5bGUgdHlwZT0idGV4dC9jc3MiPi5zdDAgeyBmaWxsOiByZ2IoNTEsIDUxLCA1MSk7IH0gPC9zdHlsZT4mI3hhOwk8cGF0aCBjbGFzcz0ic3QwIiBkPSJNMTMuNjcgMy43MzZMNy4zNi4wOTZhLjcyLjcyIDAgMCAwLS43MiAwTC4zMyAzLjczNmEuNzIuNzIgMCAwIDAtLjMzLjYydjcuMjhhLjcyLjcyIDAgMCAwIC4zNi42Mmw2LjI4IDMuNjRhLjcyLjcyIDAgMCAwIC43MiAwbDYuMzEtMy42NGEuNzIuNzIgMCAwIDAgLjMzLS42MnYtNy4yOGEuNzIuNzIgMCAwIDAtLjMzLS42MnptLS44NyA3LjJsLTIuMi0xLjI3di0zLjM0bC0zLjI1IDEuODd2My44bDIuOS0xLjY3IDIuMiAxLjI3LTUuNDUgMy4xLTUuNDUtMy4xNSAyLjItMS4yNyAyLjkgMS43MnYtMy44TDMuNCA2LjMyNnYzLjM0bC0yLjIgMS4yN3YtNi4yOWw1LjQ1LTMuMTR2Mi40OWwtMi45IDEuNzJMNyA3LjU4NmwzLjI1LTEuODgtMi45LTEuNzF2LTIuNDlsNS40NSAzLjE0eiIvPiYjeGE7PC9zdmc+;" vertex="1" parent="zMlfEPWfNRF0MTO0QMjV-38">
          <mxGeometry x="63.75" y="70" width="52.5" height="60" as="geometry" />
        </mxCell>
        <mxCell id="zMlfEPWfNRF0MTO0QMjV-44" value="homefront" style="text;html=1;strokeColor=none;fillColor=none;align=center;verticalAlign=middle;whiteSpace=wrap;rounded=0;fontStyle=1;fontFamily=PT Sans;fontSource=https%3A%2F%2Ffonts.googleapis.com%2Fcss%3Ffamily%3DPT%2BSans;fontSize=14;" vertex="1" parent="zMlfEPWfNRF0MTO0QMjV-38">
          <mxGeometry x="40" y="140" width="100" height="30" as="geometry" />
        </mxCell>
        <mxCell id="zMlfEPWfNRF0MTO0QMjV-45" value="" style="group" vertex="1" connectable="0" parent="1">
          <mxGeometry x="1070" y="230" width="190" height="190" as="geometry" />
        </mxCell>
        <mxCell id="zMlfEPWfNRF0MTO0QMjV-46" value="" style="rounded=1;whiteSpace=wrap;html=1;arcSize=4;fillColor=#E0E0E0;strokeColor=#191919;strokeWidth=2;" vertex="1" parent="zMlfEPWfNRF0MTO0QMjV-45">
          <mxGeometry width="190" height="190" as="geometry" />
        </mxCell>
        <mxCell id="zMlfEPWfNRF0MTO0QMjV-47" value="Pod" style="text;html=1;strokeColor=none;fillColor=none;align=left;verticalAlign=middle;whiteSpace=wrap;rounded=0;fontStyle=1;fontFamily=PT Sans;fontSource=https%3A%2F%2Ffonts.googleapis.com%2Fcss%3Ffamily%3DPT%2BSans;fontSize=14;" vertex="1" parent="zMlfEPWfNRF0MTO0QMjV-45">
          <mxGeometry x="10" y="10" width="40" height="30" as="geometry" />
        </mxCell>
        <mxCell id="zMlfEPWfNRF0MTO0QMjV-48" value="" style="rounded=1;whiteSpace=wrap;html=1;arcSize=9;fillColor=#FFFFFF;strokeColor=#191919;strokeWidth=2;" vertex="1" parent="zMlfEPWfNRF0MTO0QMjV-45">
          <mxGeometry x="10" y="40" width="170" height="140" as="geometry" />
        </mxCell>
        <mxCell id="zMlfEPWfNRF0MTO0QMjV-49" value="App container" style="text;html=1;strokeColor=none;fillColor=none;align=left;verticalAlign=middle;whiteSpace=wrap;rounded=0;fontStyle=1;fontFamily=PT Sans;fontSource=https%3A%2F%2Ffonts.googleapis.com%2Fcss%3Ffamily%3DPT%2BSans;fontSize=14;" vertex="1" parent="zMlfEPWfNRF0MTO0QMjV-45">
          <mxGeometry x="20" y="40" width="100" height="30" as="geometry" />
        </mxCell>
        <mxCell id="zMlfEPWfNRF0MTO0QMjV-50" value="" style="editableCssRules=.*;html=1;shape=image;verticalLabelPosition=bottom;labelBackgroundColor=#ffffff;verticalAlign=top;aspect=fixed;imageAspect=0;image=data:image/svg+xml,PHN2ZyB4bWxucz0iaHR0cDovL3d3dy53My5vcmcvMjAwMC9zdmciIHhtbG5zOnY9Imh0dHBzOi8vdmVjdGEuaW8vbmFubyIgd2lkdGg9IjE0LjAwMDI5OTQ1MzczNTM1MiIgaGVpZ2h0PSIxNS45OTI5MjI3ODI4OTc5NSIgdmlld0JveD0iLTAuMDAwMTQ5NjA4NDAwNTMzOTA3MTIgLTAuMDAwNDYxNzIyMDgzODU1NDIwMzUgMTQuMDAwMjk5NDUzNzM1MzUyIDE1Ljk5MjkyMjc4Mjg5Nzk1Ij4mI3hhOwk8c3R5bGUgdHlwZT0idGV4dC9jc3MiPi5zdDAgeyBmaWxsOiByZ2IoNTEsIDUxLCA1MSk7IH0gPC9zdHlsZT4mI3hhOwk8cGF0aCBjbGFzcz0ic3QwIiBkPSJNMTMuNjcgMy43MzZMNy4zNi4wOTZhLjcyLjcyIDAgMCAwLS43MiAwTC4zMyAzLjczNmEuNzIuNzIgMCAwIDAtLjMzLjYydjcuMjhhLjcyLjcyIDAgMCAwIC4zNi42Mmw2LjI4IDMuNjRhLjcyLjcyIDAgMCAwIC43MiAwbDYuMzEtMy42NGEuNzIuNzIgMCAwIDAgLjMzLS42MnYtNy4yOGEuNzIuNzIgMCAwIDAtLjMzLS42MnptLS44NyA3LjJsLTIuMi0xLjI3di0zLjM0bC0zLjI1IDEuODd2My44bDIuOS0xLjY3IDIuMiAxLjI3LTUuNDUgMy4xLTUuNDUtMy4xNSAyLjItMS4yNyAyLjkgMS43MnYtMy44TDMuNCA2LjMyNnYzLjM0bC0yLjIgMS4yN3YtNi4yOWw1LjQ1LTMuMTR2Mi40OWwtMi45IDEuNzJMNyA3LjU4NmwzLjI1LTEuODgtMi45LTEuNzF2LTIuNDlsNS40NSAzLjE0eiIvPiYjeGE7PC9zdmc+;" vertex="1" parent="zMlfEPWfNRF0MTO0QMjV-45">
          <mxGeometry x="63.75" y="70" width="52.5" height="60" as="geometry" />
        </mxCell>
        <mxCell id="zMlfEPWfNRF0MTO0QMjV-51" value="bff-service" style="text;html=1;strokeColor=none;fillColor=none;align=center;verticalAlign=middle;whiteSpace=wrap;rounded=0;fontStyle=1;fontFamily=PT Sans;fontSource=https%3A%2F%2Ffonts.googleapis.com%2Fcss%3Ffamily%3DPT%2BSans;fontSize=14;" vertex="1" parent="zMlfEPWfNRF0MTO0QMjV-45">
          <mxGeometry x="40" y="140" width="100" height="30" as="geometry" />
        </mxCell>
        <mxCell id="zMlfEPWfNRF0MTO0QMjV-52" value="" style="group" vertex="1" connectable="0" parent="1">
          <mxGeometry x="1280" y="230" width="190" height="190" as="geometry" />
        </mxCell>
        <mxCell id="zMlfEPWfNRF0MTO0QMjV-53" value="" style="rounded=1;whiteSpace=wrap;html=1;arcSize=4;fillColor=#E0E0E0;strokeColor=#191919;strokeWidth=2;" vertex="1" parent="zMlfEPWfNRF0MTO0QMjV-52">
          <mxGeometry width="190" height="190" as="geometry" />
        </mxCell>
        <mxCell id="zMlfEPWfNRF0MTO0QMjV-54" value="Pod" style="text;html=1;strokeColor=none;fillColor=none;align=left;verticalAlign=middle;whiteSpace=wrap;rounded=0;fontStyle=1;fontFamily=PT Sans;fontSource=https%3A%2F%2Ffonts.googleapis.com%2Fcss%3Ffamily%3DPT%2BSans;fontSize=14;" vertex="1" parent="zMlfEPWfNRF0MTO0QMjV-52">
          <mxGeometry x="10" y="10" width="40" height="30" as="geometry" />
        </mxCell>
        <mxCell id="zMlfEPWfNRF0MTO0QMjV-55" value="" style="rounded=1;whiteSpace=wrap;html=1;arcSize=9;fillColor=#FFFFFF;strokeColor=#191919;strokeWidth=2;" vertex="1" parent="zMlfEPWfNRF0MTO0QMjV-52">
          <mxGeometry x="10" y="40" width="170" height="140" as="geometry" />
        </mxCell>
        <mxCell id="zMlfEPWfNRF0MTO0QMjV-56" value="App container" style="text;html=1;strokeColor=none;fillColor=none;align=left;verticalAlign=middle;whiteSpace=wrap;rounded=0;fontStyle=1;fontFamily=PT Sans;fontSource=https%3A%2F%2Ffonts.googleapis.com%2Fcss%3Ffamily%3DPT%2BSans;fontSize=14;" vertex="1" parent="zMlfEPWfNRF0MTO0QMjV-52">
          <mxGeometry x="20" y="40" width="100" height="30" as="geometry" />
        </mxCell>
        <mxCell id="zMlfEPWfNRF0MTO0QMjV-57" value="" style="editableCssRules=.*;html=1;shape=image;verticalLabelPosition=bottom;labelBackgroundColor=#ffffff;verticalAlign=top;aspect=fixed;imageAspect=0;image=data:image/svg+xml,PHN2ZyB4bWxucz0iaHR0cDovL3d3dy53My5vcmcvMjAwMC9zdmciIHhtbG5zOnY9Imh0dHBzOi8vdmVjdGEuaW8vbmFubyIgd2lkdGg9IjE0LjAwMDI5OTQ1MzczNTM1MiIgaGVpZ2h0PSIxNS45OTI5MjI3ODI4OTc5NSIgdmlld0JveD0iLTAuMDAwMTQ5NjA4NDAwNTMzOTA3MTIgLTAuMDAwNDYxNzIyMDgzODU1NDIwMzUgMTQuMDAwMjk5NDUzNzM1MzUyIDE1Ljk5MjkyMjc4Mjg5Nzk1Ij4mI3hhOwk8c3R5bGUgdHlwZT0idGV4dC9jc3MiPi5zdDAgeyBmaWxsOiByZ2IoNTEsIDUxLCA1MSk7IH0gPC9zdHlsZT4mI3hhOwk8cGF0aCBjbGFzcz0ic3QwIiBkPSJNMTMuNjcgMy43MzZMNy4zNi4wOTZhLjcyLjcyIDAgMCAwLS43MiAwTC4zMyAzLjczNmEuNzIuNzIgMCAwIDAtLjMzLjYydjcuMjhhLjcyLjcyIDAgMCAwIC4zNi42Mmw2LjI4IDMuNjRhLjcyLjcyIDAgMCAwIC43MiAwbDYuMzEtMy42NGEuNzIuNzIgMCAwIDAgLjMzLS42MnYtNy4yOGEuNzIuNzIgMCAwIDAtLjMzLS42MnptLS44NyA3LjJsLTIuMi0xLjI3di0zLjM0bC0zLjI1IDEuODd2My44bDIuOS0xLjY3IDIuMiAxLjI3LTUuNDUgMy4xLTUuNDUtMy4xNSAyLjItMS4yNyAyLjkgMS43MnYtMy44TDMuNCA2LjMyNnYzLjM0bC0yLjIgMS4yN3YtNi4yOWw1LjQ1LTMuMTR2Mi40OWwtMi45IDEuNzJMNyA3LjU4NmwzLjI1LTEuODgtMi45LTEuNzF2LTIuNDlsNS40NSAzLjE0eiIvPiYjeGE7PC9zdmc+;" vertex="1" parent="zMlfEPWfNRF0MTO0QMjV-52">
          <mxGeometry x="63.75" y="70" width="52.5" height="60" as="geometry" />
        </mxCell>
        <mxCell id="zMlfEPWfNRF0MTO0QMjV-58" value="listing-service" style="text;html=1;strokeColor=none;fillColor=none;align=center;verticalAlign=middle;whiteSpace=wrap;rounded=0;fontStyle=1;fontFamily=PT Sans;fontSource=https%3A%2F%2Ffonts.googleapis.com%2Fcss%3Ffamily%3DPT%2BSans;fontSize=14;" vertex="1" parent="zMlfEPWfNRF0MTO0QMjV-52">
          <mxGeometry x="40" y="140" width="100" height="30" as="geometry" />
        </mxCell>
        <mxCell id="zMlfEPWfNRF0MTO0QMjV-73" value="" style="group" vertex="1" connectable="0" parent="1">
          <mxGeometry x="120" y="220" width="190" height="190" as="geometry" />
        </mxCell>
        <mxCell id="zMlfEPWfNRF0MTO0QMjV-74" value="" style="rounded=1;whiteSpace=wrap;html=1;arcSize=4;fillColor=#E0E0E0;strokeColor=#191919;strokeWidth=2;" vertex="1" parent="zMlfEPWfNRF0MTO0QMjV-73">
          <mxGeometry width="190" height="190" as="geometry" />
        </mxCell>
        <mxCell id="zMlfEPWfNRF0MTO0QMjV-75" value="Pod" style="text;html=1;strokeColor=none;fillColor=none;align=left;verticalAlign=middle;whiteSpace=wrap;rounded=0;fontStyle=1;fontFamily=PT Sans;fontSource=https%3A%2F%2Ffonts.googleapis.com%2Fcss%3Ffamily%3DPT%2BSans;fontSize=14;" vertex="1" parent="zMlfEPWfNRF0MTO0QMjV-73">
          <mxGeometry x="10" y="10" width="40" height="30" as="geometry" />
        </mxCell>
        <mxCell id="zMlfEPWfNRF0MTO0QMjV-76" value="" style="rounded=1;whiteSpace=wrap;html=1;arcSize=9;fillColor=#FFFFFF;strokeColor=#191919;strokeWidth=2;" vertex="1" parent="zMlfEPWfNRF0MTO0QMjV-73">
          <mxGeometry x="10" y="40" width="170" height="140" as="geometry" />
        </mxCell>
        <mxCell id="zMlfEPWfNRF0MTO0QMjV-77" value="App container" style="text;html=1;strokeColor=none;fillColor=none;align=left;verticalAlign=middle;whiteSpace=wrap;rounded=0;fontStyle=1;fontFamily=PT Sans;fontSource=https%3A%2F%2Ffonts.googleapis.com%2Fcss%3Ffamily%3DPT%2BSans;fontSize=14;" vertex="1" parent="zMlfEPWfNRF0MTO0QMjV-73">
          <mxGeometry x="20" y="40" width="100" height="30" as="geometry" />
        </mxCell>
        <mxCell id="zMlfEPWfNRF0MTO0QMjV-78" value="" style="editableCssRules=.*;html=1;shape=image;verticalLabelPosition=bottom;labelBackgroundColor=#ffffff;verticalAlign=top;aspect=fixed;imageAspect=0;image=data:image/svg+xml,PHN2ZyB4bWxucz0iaHR0cDovL3d3dy53My5vcmcvMjAwMC9zdmciIHhtbG5zOnY9Imh0dHBzOi8vdmVjdGEuaW8vbmFubyIgd2lkdGg9IjE0LjAwMDI5OTQ1MzczNTM1MiIgaGVpZ2h0PSIxNS45OTI5MjI3ODI4OTc5NSIgdmlld0JveD0iLTAuMDAwMTQ5NjA4NDAwNTMzOTA3MTIgLTAuMDAwNDYxNzIyMDgzODU1NDIwMzUgMTQuMDAwMjk5NDUzNzM1MzUyIDE1Ljk5MjkyMjc4Mjg5Nzk1Ij4mI3hhOwk8c3R5bGUgdHlwZT0idGV4dC9jc3MiPi5zdDAgeyBmaWxsOiByZ2IoNTEsIDUxLCA1MSk7IH0gPC9zdHlsZT4mI3hhOwk8cGF0aCBjbGFzcz0ic3QwIiBkPSJNMTMuNjcgMy43MzZMNy4zNi4wOTZhLjcyLjcyIDAgMCAwLS43MiAwTC4zMyAzLjczNmEuNzIuNzIgMCAwIDAtLjMzLjYydjcuMjhhLjcyLjcyIDAgMCAwIC4zNi42Mmw2LjI4IDMuNjRhLjcyLjcyIDAgMCAwIC43MiAwbDYuMzEtMy42NGEuNzIuNzIgMCAwIDAgLjMzLS42MnYtNy4yOGEuNzIuNzIgMCAwIDAtLjMzLS42MnptLS44NyA3LjJsLTIuMi0xLjI3di0zLjM0bC0zLjI1IDEuODd2My44bDIuOS0xLjY3IDIuMiAxLjI3LTUuNDUgMy4xLTUuNDUtMy4xNSAyLjItMS4yNyAyLjkgMS43MnYtMy44TDMuNCA2LjMyNnYzLjM0bC0yLjIgMS4yN3YtNi4yOWw1LjQ1LTMuMTR2Mi40OWwtMi45IDEuNzJMNyA3LjU4NmwzLjI1LTEuODgtMi45LTEuNzF2LTIuNDlsNS40NSAzLjE0eiIvPiYjeGE7PC9zdmc+;" vertex="1" parent="zMlfEPWfNRF0MTO0QMjV-73">
          <mxGeometry x="63.75" y="70" width="52.5" height="60" as="geometry" />
        </mxCell>
        <mxCell id="zMlfEPWfNRF0MTO0QMjV-79" value="PostgreSQL" style="text;html=1;strokeColor=none;fillColor=none;align=center;verticalAlign=middle;whiteSpace=wrap;rounded=0;fontStyle=1;fontFamily=PT Sans;fontSource=https%3A%2F%2Ffonts.googleapis.com%2Fcss%3Ffamily%3DPT%2BSans;fontSize=14;" vertex="1" parent="zMlfEPWfNRF0MTO0QMjV-73">
          <mxGeometry x="40" y="140" width="100" height="30" as="geometry" />
        </mxCell>
        <mxCell id="zMlfEPWfNRF0MTO0QMjV-80" value="" style="rounded=1;whiteSpace=wrap;html=1;arcSize=3;fillColor=#FFFFFF;strokeColor=#191919;strokeWidth=2;" vertex="1" parent="1">
          <mxGeometry x="100" y="490" width="690" height="280" as="geometry" />
        </mxCell>
        <mxCell id="DVEyI0LopU-8sme3r_t3-1" value="VM.Standard.A1.Flex - Worker Node" style="text;html=1;strokeColor=none;fillColor=none;align=left;verticalAlign=middle;whiteSpace=wrap;rounded=0;fontStyle=1;fontFamily=PT Sans;fontSource=https%3A%2F%2Ffonts.googleapis.com%2Fcss%3Ffamily%3DPT%2BSans;fontSize=14;" vertex="1" parent="1">
          <mxGeometry x="110" y="500" width="260" height="30" as="geometry" />
        </mxCell>
        <mxCell id="DVEyI0LopU-8sme3r_t3-2" value="" style="group" vertex="1" connectable="0" parent="1">
          <mxGeometry x="970" y="440" width="190" height="190" as="geometry" />
        </mxCell>
        <mxCell id="DVEyI0LopU-8sme3r_t3-3" value="" style="rounded=1;whiteSpace=wrap;html=1;arcSize=4;fillColor=#E0E0E0;strokeColor=#191919;strokeWidth=2;" vertex="1" parent="DVEyI0LopU-8sme3r_t3-2">
          <mxGeometry width="190" height="190" as="geometry" />
        </mxCell>
        <mxCell id="DVEyI0LopU-8sme3r_t3-4" value="Pod" style="text;html=1;strokeColor=none;fillColor=none;align=left;verticalAlign=middle;whiteSpace=wrap;rounded=0;fontStyle=1;fontFamily=PT Sans;fontSource=https%3A%2F%2Ffonts.googleapis.com%2Fcss%3Ffamily%3DPT%2BSans;fontSize=14;" vertex="1" parent="DVEyI0LopU-8sme3r_t3-2">
          <mxGeometry x="10" y="10" width="40" height="30" as="geometry" />
        </mxCell>
        <mxCell id="DVEyI0LopU-8sme3r_t3-5" value="" style="rounded=1;whiteSpace=wrap;html=1;arcSize=9;fillColor=#FFFFFF;strokeColor=#191919;strokeWidth=2;" vertex="1" parent="DVEyI0LopU-8sme3r_t3-2">
          <mxGeometry x="10" y="40" width="170" height="140" as="geometry" />
        </mxCell>
        <mxCell id="DVEyI0LopU-8sme3r_t3-6" value="App container" style="text;html=1;strokeColor=none;fillColor=none;align=left;verticalAlign=middle;whiteSpace=wrap;rounded=0;fontStyle=1;fontFamily=PT Sans;fontSource=https%3A%2F%2Ffonts.googleapis.com%2Fcss%3Ffamily%3DPT%2BSans;fontSize=14;" vertex="1" parent="DVEyI0LopU-8sme3r_t3-2">
          <mxGeometry x="20" y="40" width="100" height="30" as="geometry" />
        </mxCell>
        <mxCell id="DVEyI0LopU-8sme3r_t3-7" value="" style="editableCssRules=.*;html=1;shape=image;verticalLabelPosition=bottom;labelBackgroundColor=#ffffff;verticalAlign=top;aspect=fixed;imageAspect=0;image=data:image/svg+xml,PHN2ZyB4bWxucz0iaHR0cDovL3d3dy53My5vcmcvMjAwMC9zdmciIHhtbG5zOnY9Imh0dHBzOi8vdmVjdGEuaW8vbmFubyIgd2lkdGg9IjE0LjAwMDI5OTQ1MzczNTM1MiIgaGVpZ2h0PSIxNS45OTI5MjI3ODI4OTc5NSIgdmlld0JveD0iLTAuMDAwMTQ5NjA4NDAwNTMzOTA3MTIgLTAuMDAwNDYxNzIyMDgzODU1NDIwMzUgMTQuMDAwMjk5NDUzNzM1MzUyIDE1Ljk5MjkyMjc4Mjg5Nzk1Ij4mI3hhOwk8c3R5bGUgdHlwZT0idGV4dC9jc3MiPi5zdDAgeyBmaWxsOiByZ2IoNTEsIDUxLCA1MSk7IH0gPC9zdHlsZT4mI3hhOwk8cGF0aCBjbGFzcz0ic3QwIiBkPSJNMTMuNjcgMy43MzZMNy4zNi4wOTZhLjcyLjcyIDAgMCAwLS43MiAwTC4zMyAzLjczNmEuNzIuNzIgMCAwIDAtLjMzLjYydjcuMjhhLjcyLjcyIDAgMCAwIC4zNi42Mmw2LjI4IDMuNjRhLjcyLjcyIDAgMCAwIC43MiAwbDYuMzEtMy42NGEuNzIuNzIgMCAwIDAgLjMzLS42MnYtNy4yOGEuNzIuNzIgMCAwIDAtLjMzLS42MnptLS44NyA3LjJsLTIuMi0xLjI3di0zLjM0bC0zLjI1IDEuODd2My44bDIuOS0xLjY3IDIuMiAxLjI3LTUuNDUgMy4xLTUuNDUtMy4xNSAyLjItMS4yNyAyLjkgMS43MnYtMy44TDMuNCA2LjMyNnYzLjM0bC0yLjIgMS4yN3YtNi4yOWw1LjQ1LTMuMTR2Mi40OWwtMi45IDEuNzJMNyA3LjU4NmwzLjI1LTEuODgtMi45LTEuNzF2LTIuNDlsNS40NSAzLjE0eiIvPiYjeGE7PC9zdmc+;" vertex="1" parent="DVEyI0LopU-8sme3r_t3-2">
          <mxGeometry x="63.75" y="70" width="52.5" height="60" as="geometry" />
        </mxCell>
        <mxCell id="DVEyI0LopU-8sme3r_t3-8" value="reservation-service" style="text;html=1;strokeColor=none;fillColor=none;align=center;verticalAlign=middle;whiteSpace=wrap;rounded=0;fontStyle=1;fontFamily=PT Sans;fontSource=https%3A%2F%2Ffonts.googleapis.com%2Fcss%3Ffamily%3DPT%2BSans;fontSize=14;" vertex="1" parent="DVEyI0LopU-8sme3r_t3-2">
          <mxGeometry x="25" y="140" width="130" height="30" as="geometry" />
        </mxCell>
        <mxCell id="DVEyI0LopU-8sme3r_t3-9" value="" style="group" vertex="1" connectable="0" parent="1">
          <mxGeometry x="1180" y="440" width="190" height="190" as="geometry" />
        </mxCell>
        <mxCell id="DVEyI0LopU-8sme3r_t3-10" value="" style="rounded=1;whiteSpace=wrap;html=1;arcSize=4;fillColor=#E0E0E0;strokeColor=#191919;strokeWidth=2;" vertex="1" parent="DVEyI0LopU-8sme3r_t3-9">
          <mxGeometry width="190" height="190" as="geometry" />
        </mxCell>
        <mxCell id="DVEyI0LopU-8sme3r_t3-11" value="Pod" style="text;html=1;strokeColor=none;fillColor=none;align=left;verticalAlign=middle;whiteSpace=wrap;rounded=0;fontStyle=1;fontFamily=PT Sans;fontSource=https%3A%2F%2Ffonts.googleapis.com%2Fcss%3Ffamily%3DPT%2BSans;fontSize=14;" vertex="1" parent="DVEyI0LopU-8sme3r_t3-9">
          <mxGeometry x="10" y="10" width="40" height="30" as="geometry" />
        </mxCell>
        <mxCell id="DVEyI0LopU-8sme3r_t3-12" value="" style="rounded=1;whiteSpace=wrap;html=1;arcSize=9;fillColor=#FFFFFF;strokeColor=#191919;strokeWidth=2;" vertex="1" parent="DVEyI0LopU-8sme3r_t3-9">
          <mxGeometry x="10" y="40" width="170" height="140" as="geometry" />
        </mxCell>
        <mxCell id="DVEyI0LopU-8sme3r_t3-13" value="App container" style="text;html=1;strokeColor=none;fillColor=none;align=left;verticalAlign=middle;whiteSpace=wrap;rounded=0;fontStyle=1;fontFamily=PT Sans;fontSource=https%3A%2F%2Ffonts.googleapis.com%2Fcss%3Ffamily%3DPT%2BSans;fontSize=14;" vertex="1" parent="DVEyI0LopU-8sme3r_t3-9">
          <mxGeometry x="20" y="40" width="100" height="30" as="geometry" />
        </mxCell>
        <mxCell id="DVEyI0LopU-8sme3r_t3-14" value="" style="editableCssRules=.*;html=1;shape=image;verticalLabelPosition=bottom;labelBackgroundColor=#ffffff;verticalAlign=top;aspect=fixed;imageAspect=0;image=data:image/svg+xml,PHN2ZyB4bWxucz0iaHR0cDovL3d3dy53My5vcmcvMjAwMC9zdmciIHhtbG5zOnY9Imh0dHBzOi8vdmVjdGEuaW8vbmFubyIgd2lkdGg9IjE0LjAwMDI5OTQ1MzczNTM1MiIgaGVpZ2h0PSIxNS45OTI5MjI3ODI4OTc5NSIgdmlld0JveD0iLTAuMDAwMTQ5NjA4NDAwNTMzOTA3MTIgLTAuMDAwNDYxNzIyMDgzODU1NDIwMzUgMTQuMDAwMjk5NDUzNzM1MzUyIDE1Ljk5MjkyMjc4Mjg5Nzk1Ij4mI3hhOwk8c3R5bGUgdHlwZT0idGV4dC9jc3MiPi5zdDAgeyBmaWxsOiByZ2IoNTEsIDUxLCA1MSk7IH0gPC9zdHlsZT4mI3hhOwk8cGF0aCBjbGFzcz0ic3QwIiBkPSJNMTMuNjcgMy43MzZMNy4zNi4wOTZhLjcyLjcyIDAgMCAwLS43MiAwTC4zMyAzLjczNmEuNzIuNzIgMCAwIDAtLjMzLjYydjcuMjhhLjcyLjcyIDAgMCAwIC4zNi42Mmw2LjI4IDMuNjRhLjcyLjcyIDAgMCAwIC43MiAwbDYuMzEtMy42NGEuNzIuNzIgMCAwIDAgLjMzLS42MnYtNy4yOGEuNzIuNzIgMCAwIDAtLjMzLS42MnptLS44NyA3LjJsLTIuMi0xLjI3di0zLjM0bC0zLjI1IDEuODd2My44bDIuOS0xLjY3IDIuMiAxLjI3LTUuNDUgMy4xLTUuNDUtMy4xNSAyLjItMS4yNyAyLjkgMS43MnYtMy44TDMuNCA2LjMyNnYzLjM0bC0yLjIgMS4yN3YtNi4yOWw1LjQ1LTMuMTR2Mi40OWwtMi45IDEuNzJMNyA3LjU4NmwzLjI1LTEuODgtMi45LTEuNzF2LTIuNDlsNS40NSAzLjE0eiIvPiYjeGE7PC9zdmc+;" vertex="1" parent="DVEyI0LopU-8sme3r_t3-9">
          <mxGeometry x="63.75" y="70" width="52.5" height="60" as="geometry" />
        </mxCell>
        <mxCell id="DVEyI0LopU-8sme3r_t3-15" value="payment-service" style="text;html=1;strokeColor=none;fillColor=none;align=center;verticalAlign=middle;whiteSpace=wrap;rounded=0;fontStyle=1;fontFamily=PT Sans;fontSource=https%3A%2F%2Ffonts.googleapis.com%2Fcss%3Ffamily%3DPT%2BSans;fontSize=14;" vertex="1" parent="DVEyI0LopU-8sme3r_t3-9">
          <mxGeometry x="25" y="140" width="130" height="30" as="geometry" />
        </mxCell>
        <mxCell id="DVEyI0LopU-8sme3r_t3-16" value="" style="group" vertex="1" connectable="0" parent="1">
          <mxGeometry x="120" y="550" width="190" height="190" as="geometry" />
        </mxCell>
        <mxCell id="DVEyI0LopU-8sme3r_t3-17" value="" style="rounded=1;whiteSpace=wrap;html=1;arcSize=4;fillColor=#E0E0E0;strokeColor=#191919;strokeWidth=2;" vertex="1" parent="DVEyI0LopU-8sme3r_t3-16">
          <mxGeometry width="190" height="190" as="geometry" />
        </mxCell>
        <mxCell id="DVEyI0LopU-8sme3r_t3-18" value="Pod" style="text;html=1;strokeColor=none;fillColor=none;align=left;verticalAlign=middle;whiteSpace=wrap;rounded=0;fontStyle=1;fontFamily=PT Sans;fontSource=https%3A%2F%2Ffonts.googleapis.com%2Fcss%3Ffamily%3DPT%2BSans;fontSize=14;" vertex="1" parent="DVEyI0LopU-8sme3r_t3-16">
          <mxGeometry x="10" y="10" width="40" height="30" as="geometry" />
        </mxCell>
        <mxCell id="DVEyI0LopU-8sme3r_t3-19" value="" style="rounded=1;whiteSpace=wrap;html=1;arcSize=9;fillColor=#FFFFFF;strokeColor=#191919;strokeWidth=2;" vertex="1" parent="DVEyI0LopU-8sme3r_t3-16">
          <mxGeometry x="10" y="40" width="170" height="140" as="geometry" />
        </mxCell>
        <mxCell id="DVEyI0LopU-8sme3r_t3-20" value="App container" style="text;html=1;strokeColor=none;fillColor=none;align=left;verticalAlign=middle;whiteSpace=wrap;rounded=0;fontStyle=1;fontFamily=PT Sans;fontSource=https%3A%2F%2Ffonts.googleapis.com%2Fcss%3Ffamily%3DPT%2BSans;fontSize=14;" vertex="1" parent="DVEyI0LopU-8sme3r_t3-16">
          <mxGeometry x="20" y="40" width="100" height="30" as="geometry" />
        </mxCell>
        <mxCell id="DVEyI0LopU-8sme3r_t3-21" value="" style="editableCssRules=.*;html=1;shape=image;verticalLabelPosition=bottom;labelBackgroundColor=#ffffff;verticalAlign=top;aspect=fixed;imageAspect=0;image=data:image/svg+xml,PHN2ZyB4bWxucz0iaHR0cDovL3d3dy53My5vcmcvMjAwMC9zdmciIHhtbG5zOnY9Imh0dHBzOi8vdmVjdGEuaW8vbmFubyIgd2lkdGg9IjE0LjAwMDI5OTQ1MzczNTM1MiIgaGVpZ2h0PSIxNS45OTI5MjI3ODI4OTc5NSIgdmlld0JveD0iLTAuMDAwMTQ5NjA4NDAwNTMzOTA3MTIgLTAuMDAwNDYxNzIyMDgzODU1NDIwMzUgMTQuMDAwMjk5NDUzNzM1MzUyIDE1Ljk5MjkyMjc4Mjg5Nzk1Ij4mI3hhOwk8c3R5bGUgdHlwZT0idGV4dC9jc3MiPi5zdDAgeyBmaWxsOiByZ2IoNTEsIDUxLCA1MSk7IH0gPC9zdHlsZT4mI3hhOwk8cGF0aCBjbGFzcz0ic3QwIiBkPSJNMTMuNjcgMy43MzZMNy4zNi4wOTZhLjcyLjcyIDAgMCAwLS43MiAwTC4zMyAzLjczNmEuNzIuNzIgMCAwIDAtLjMzLjYydjcuMjhhLjcyLjcyIDAgMCAwIC4zNi42Mmw2LjI4IDMuNjRhLjcyLjcyIDAgMCAwIC43MiAwbDYuMzEtMy42NGEuNzIuNzIgMCAwIDAgLjMzLS42MnYtNy4yOGEuNzIuNzIgMCAwIDAtLjMzLS42MnptLS44NyA3LjJsLTIuMi0xLjI3di0zLjM0bC0zLjI1IDEuODd2My44bDIuOS0xLjY3IDIuMiAxLjI3LTUuNDUgMy4xLTUuNDUtMy4xNSAyLjItMS4yNyAyLjkgMS43MnYtMy44TDMuNCA2LjMyNnYzLjM0bC0yLjIgMS4yN3YtNi4yOWw1LjQ1LTMuMTR2Mi40OWwtMi45IDEuNzJMNyA3LjU4NmwzLjI1LTEuODgtMi45LTEuNzF2LTIuNDlsNS40NSAzLjE0eiIvPiYjeGE7PC9zdmc+;" vertex="1" parent="DVEyI0LopU-8sme3r_t3-16">
          <mxGeometry x="63.75" y="70" width="52.5" height="60" as="geometry" />
        </mxCell>
        <mxCell id="DVEyI0LopU-8sme3r_t3-22" value="Kafka" style="text;html=1;strokeColor=none;fillColor=none;align=center;verticalAlign=middle;whiteSpace=wrap;rounded=0;fontStyle=1;fontFamily=PT Sans;fontSource=https%3A%2F%2Ffonts.googleapis.com%2Fcss%3Ffamily%3DPT%2BSans;fontSize=14;" vertex="1" parent="DVEyI0LopU-8sme3r_t3-16">
          <mxGeometry x="40" y="140" width="100" height="30" as="geometry" />
        </mxCell>
        <mxCell id="DVEyI0LopU-8sme3r_t3-23" value="" style="group" vertex="1" connectable="0" parent="1">
          <mxGeometry x="340" y="550" width="190" height="190" as="geometry" />
        </mxCell>
        <mxCell id="DVEyI0LopU-8sme3r_t3-24" value="" style="rounded=1;whiteSpace=wrap;html=1;arcSize=4;fillColor=#E0E0E0;strokeColor=#191919;strokeWidth=2;" vertex="1" parent="DVEyI0LopU-8sme3r_t3-23">
          <mxGeometry width="190" height="190" as="geometry" />
        </mxCell>
        <mxCell id="DVEyI0LopU-8sme3r_t3-25" value="Pod" style="text;html=1;strokeColor=none;fillColor=none;align=left;verticalAlign=middle;whiteSpace=wrap;rounded=0;fontStyle=1;fontFamily=PT Sans;fontSource=https%3A%2F%2Ffonts.googleapis.com%2Fcss%3Ffamily%3DPT%2BSans;fontSize=14;" vertex="1" parent="DVEyI0LopU-8sme3r_t3-23">
          <mxGeometry x="10" y="10" width="40" height="30" as="geometry" />
        </mxCell>
        <mxCell id="DVEyI0LopU-8sme3r_t3-26" value="" style="rounded=1;whiteSpace=wrap;html=1;arcSize=9;fillColor=#FFFFFF;strokeColor=#191919;strokeWidth=2;" vertex="1" parent="DVEyI0LopU-8sme3r_t3-23">
          <mxGeometry x="10" y="40" width="170" height="140" as="geometry" />
        </mxCell>
        <mxCell id="DVEyI0LopU-8sme3r_t3-27" value="App container" style="text;html=1;strokeColor=none;fillColor=none;align=left;verticalAlign=middle;whiteSpace=wrap;rounded=0;fontStyle=1;fontFamily=PT Sans;fontSource=https%3A%2F%2Ffonts.googleapis.com%2Fcss%3Ffamily%3DPT%2BSans;fontSize=14;" vertex="1" parent="DVEyI0LopU-8sme3r_t3-23">
          <mxGeometry x="20" y="40" width="100" height="30" as="geometry" />
        </mxCell>
        <mxCell id="DVEyI0LopU-8sme3r_t3-28" value="" style="editableCssRules=.*;html=1;shape=image;verticalLabelPosition=bottom;labelBackgroundColor=#ffffff;verticalAlign=top;aspect=fixed;imageAspect=0;image=data:image/svg+xml,PHN2ZyB4bWxucz0iaHR0cDovL3d3dy53My5vcmcvMjAwMC9zdmciIHhtbG5zOnY9Imh0dHBzOi8vdmVjdGEuaW8vbmFubyIgd2lkdGg9IjE0LjAwMDI5OTQ1MzczNTM1MiIgaGVpZ2h0PSIxNS45OTI5MjI3ODI4OTc5NSIgdmlld0JveD0iLTAuMDAwMTQ5NjA4NDAwNTMzOTA3MTIgLTAuMDAwNDYxNzIyMDgzODU1NDIwMzUgMTQuMDAwMjk5NDUzNzM1MzUyIDE1Ljk5MjkyMjc4Mjg5Nzk1Ij4mI3hhOwk8c3R5bGUgdHlwZT0idGV4dC9jc3MiPi5zdDAgeyBmaWxsOiByZ2IoNTEsIDUxLCA1MSk7IH0gPC9zdHlsZT4mI3hhOwk8cGF0aCBjbGFzcz0ic3QwIiBkPSJNMTMuNjcgMy43MzZMNy4zNi4wOTZhLjcyLjcyIDAgMCAwLS43MiAwTC4zMyAzLjczNmEuNzIuNzIgMCAwIDAtLjMzLjYydjcuMjhhLjcyLjcyIDAgMCAwIC4zNi42Mmw2LjI4IDMuNjRhLjcyLjcyIDAgMCAwIC43MiAwbDYuMzEtMy42NGEuNzIuNzIgMCAwIDAgLjMzLS42MnYtNy4yOGEuNzIuNzIgMCAwIDAtLjMzLS42MnptLS44NyA3LjJsLTIuMi0xLjI3di0zLjM0bC0zLjI1IDEuODd2My44bDIuOS0xLjY3IDIuMiAxLjI3LTUuNDUgMy4xLTUuNDUtMy4xNSAyLjItMS4yNyAyLjkgMS43MnYtMy44TDMuNCA2LjMyNnYzLjM0bC0yLjIgMS4yN3YtNi4yOWw1LjQ1LTMuMTR2Mi40OWwtMi45IDEuNzJMNyA3LjU4NmwzLjI1LTEuODgtMi45LTEuNzF2LTIuNDlsNS40NSAzLjE0eiIvPiYjeGE7PC9zdmc+;" vertex="1" parent="DVEyI0LopU-8sme3r_t3-23">
          <mxGeometry x="63.75" y="70" width="52.5" height="60" as="geometry" />
        </mxCell>
        <mxCell id="DVEyI0LopU-8sme3r_t3-29" value="Elasticsearch" style="text;html=1;strokeColor=none;fillColor=none;align=center;verticalAlign=middle;whiteSpace=wrap;rounded=0;fontStyle=1;fontFamily=PT Sans;fontSource=https%3A%2F%2Ffonts.googleapis.com%2Fcss%3Ffamily%3DPT%2BSans;fontSize=14;" vertex="1" parent="DVEyI0LopU-8sme3r_t3-23">
          <mxGeometry x="40" y="140" width="100" height="30" as="geometry" />
        </mxCell>
      </root>
    </mxGraphModel>
  </diagram>
</mxfile>
